<svg width="203" height="43" viewBox="0 0 203 43" fill="none" xmlns="http://www.w3.org/2000/svg">
<g clip-path="url(#clip0_803_1171)">
<path d="M158.171 26.5109V24.0651H156.335V21.3986H153.762V22.5755C153.778 22.9615 153.65 23.34 153.402 23.6421C153.265 23.7895 153.094 23.9042 152.904 23.9775C152.714 24.0508 152.509 24.0808 152.305 24.0651H151.832V26.5109H153.488V30.4188C153.488 31.3383 153.765 32.0585 154.32 32.5796C154.875 33.1006 155.645 33.3611 156.629 33.3611C156.979 33.3732 157.33 33.336 157.67 33.2508C157.906 33.1772 158.062 33.129 158.124 33.1037V30.7958C158.015 30.8248 157.904 30.8463 157.793 30.8601C157.651 30.8791 157.509 30.8883 157.367 30.8877C157.1 30.9005 156.836 30.8331 156.61 30.6946C156.421 30.5659 156.326 30.313 156.326 29.9314V26.5109H158.171ZM147.574 27.9086L151.245 24.0651H147.517L144.66 27.1362V19.8906H141.784V33.2048H144.66V30.9613L145.587 29.9866L147.801 33.2048H151.321L147.574 27.9086ZM140.052 32.7359C140.019 32.4243 140.003 32.1112 140.005 31.798V27.3293C140.007 26.8733 139.934 26.42 139.787 25.9868C139.646 25.5605 139.403 25.1729 139.078 24.8558C138.708 24.5104 138.266 24.2469 137.781 24.0835C137.16 23.8801 136.507 23.7836 135.851 23.7984C135.238 23.7853 134.628 23.8852 134.053 24.0927C133.593 24.2643 133.167 24.5133 132.795 24.8283C132.478 25.1024 132.218 25.4333 132.029 25.8029C131.863 26.125 131.76 26.4742 131.726 26.8327L134.214 27.3293C134.267 27.0588 134.389 26.8056 134.569 26.5925C134.748 26.3795 134.979 26.2133 135.242 26.1092C135.504 26.0051 135.789 25.9662 136.07 25.9962C136.352 26.0263 136.621 26.1242 136.854 26.2811C136.961 26.3636 137.049 26.4683 137.109 26.5875C137.17 26.7068 137.202 26.8377 137.204 26.9707C137.209 27.1194 137.155 27.2642 137.053 27.3752C136.909 27.5093 136.722 27.5906 136.523 27.6051L134.309 27.9361C133.935 27.9938 133.569 28.0957 133.221 28.2396C132.898 28.3752 132.601 28.5616 132.341 28.7913C132.088 29.0226 131.885 29.3009 131.745 29.6096C131.522 30.1138 131.464 30.6721 131.577 31.2095C131.69 31.7469 131.97 32.2378 132.379 32.6163C132.675 32.8847 133.022 33.094 133.401 33.2324C133.842 33.3923 134.311 33.4703 134.782 33.4623C135.34 33.4785 135.893 33.3584 136.39 33.1129C136.817 32.8954 137.176 32.5718 137.431 32.175C137.428 32.4177 137.44 32.6603 137.469 32.9014C137.483 33.0034 137.502 33.1047 137.526 33.2048H140.128C140.107 33.1565 140.085 32.9979 140.059 32.7267L140.052 32.7359ZM137.214 29.628C137.224 29.9291 137.173 30.2292 137.062 30.5107C136.977 30.7234 136.845 30.915 136.674 31.0716C136.519 31.2124 136.331 31.3135 136.126 31.3658C135.919 31.4209 135.706 31.4487 135.492 31.4486C135.335 31.4641 135.178 31.4467 135.029 31.3975C134.881 31.3483 134.745 31.2685 134.631 31.1635C134.464 30.9848 134.373 30.7518 134.375 30.5107C134.365 30.3779 134.387 30.2446 134.44 30.1216C134.492 29.9986 134.574 29.8893 134.678 29.8027C134.901 29.6427 135.161 29.5385 135.435 29.4993L137.214 29.2234V29.628ZM130.117 26.7132C129.934 26.161 129.641 25.6488 129.256 25.2052C128.881 24.779 128.412 24.4397 127.885 24.2122C127.306 23.9659 126.68 23.8436 126.049 23.8536C125.448 23.837 124.851 23.9599 124.308 24.2122C123.904 24.3919 123.553 24.6669 123.286 25.0122V24.0651H120.495V36.7081H123.371V32.4876C123.639 32.7808 123.977 33.0051 124.355 33.1405C124.856 33.3282 125.39 33.4187 125.926 33.4071C126.548 33.4141 127.164 33.2919 127.733 33.0485C128.272 32.8165 128.755 32.4783 129.152 32.0555C129.561 31.6141 129.877 31.0985 130.08 30.5383C130.307 29.9187 130.419 29.265 130.411 28.6074C130.418 27.9611 130.316 27.3181 130.108 26.704L130.117 26.7132ZM127.421 29.628C127.321 29.8986 127.159 30.1438 126.948 30.3452C126.752 30.5329 126.516 30.6772 126.257 30.7682C126 30.8601 125.727 30.9068 125.453 30.9061C125.178 30.9067 124.905 30.8568 124.649 30.759C124.394 30.6597 124.165 30.5093 123.975 30.3176C123.768 30.1164 123.606 29.8752 123.501 29.6096C123.274 28.966 123.274 28.2672 123.501 27.6235C123.607 27.3584 123.768 27.1174 123.975 26.9155C124.168 26.7285 124.4 26.5842 124.656 26.4925C125.175 26.3086 125.745 26.3086 126.264 26.4925C126.523 26.5844 126.758 26.7286 126.955 26.9155C127.163 27.1155 127.325 27.357 127.428 27.6235C127.548 27.9414 127.606 28.2781 127.598 28.6166C127.604 28.9615 127.544 29.3044 127.421 29.628ZM118.574 32.7267C118.541 32.4151 118.525 32.102 118.527 31.7888V27.3293C118.529 26.8733 118.456 26.42 118.309 25.9868C118.168 25.5605 117.925 25.1729 117.6 24.8558C117.23 24.5104 116.788 24.2469 116.304 24.0835C115.682 23.8801 115.029 23.7836 114.373 23.7984C113.76 23.7853 113.15 23.8852 112.576 24.0927C112.115 24.2643 111.689 24.5133 111.317 24.8283C111 25.1024 110.74 25.4333 110.551 25.8029C110.385 26.125 110.283 26.4742 110.248 26.8327L112.737 27.3293C112.79 27.0588 112.912 26.8056 113.091 26.5925C113.27 26.3795 113.502 26.2133 113.764 26.1092C114.026 26.0051 114.311 25.9662 114.593 25.9962C114.874 26.0263 115.144 26.1242 115.376 26.2811C115.484 26.3636 115.571 26.4683 115.631 26.5875C115.692 26.7068 115.724 26.8377 115.726 26.9707C115.731 27.1194 115.677 27.2642 115.575 27.3752C115.431 27.5093 115.244 27.5906 115.045 27.6051L112.831 27.9361C112.457 27.9938 112.092 28.0957 111.743 28.2396C111.421 28.3752 111.123 28.5616 110.863 28.7913C110.61 29.0226 110.408 29.3009 110.267 29.6096C110.045 30.1138 109.986 30.6721 110.099 31.2095C110.213 31.7469 110.492 32.2378 110.901 32.6163C111.197 32.8847 111.544 33.094 111.923 33.2324C112.365 33.3923 112.833 33.4703 113.304 33.4623C113.862 33.4785 114.415 33.3584 114.913 33.1129C115.339 32.8954 115.698 32.5718 115.954 32.175C115.95 32.4177 115.963 32.6603 115.991 32.9014C116.005 33.0034 116.024 33.1047 116.048 33.2048H118.65C118.629 33.1565 118.607 32.9979 118.574 32.7267ZM115.736 29.6188C115.746 29.9199 115.695 30.22 115.585 30.5015C115.5 30.7142 115.367 30.9058 115.197 31.0624C115.042 31.2032 114.853 31.3043 114.648 31.3566C114.441 31.4117 114.228 31.4395 114.014 31.4394C113.858 31.4549 113.7 31.4375 113.551 31.3883C113.403 31.3391 113.267 31.2593 113.153 31.1544C112.986 30.9756 112.895 30.7426 112.897 30.5015C112.887 30.3687 112.909 30.2354 112.962 30.1124C113.014 29.9894 113.096 29.8801 113.2 29.7935C113.423 29.6336 113.683 29.5293 113.957 29.4901L115.736 29.2142V29.6188ZM108.122 25.6834C107.947 25.2715 107.682 24.9013 107.346 24.5984C107.024 24.3174 106.643 24.1072 106.229 23.9823C105.81 23.8543 105.373 23.7891 104.933 23.7892C104.363 23.7763 103.796 23.8895 103.277 24.1202C102.769 24.3756 102.338 24.7561 102.028 25.2236C101.792 24.7759 101.423 24.4075 100.969 24.1662C100.192 23.7939 99.3061 23.6932 98.4615 23.8812C98.1937 23.9424 97.9335 24.0318 97.6856 24.1478C97.4446 24.2613 97.219 24.4034 97.0139 24.5708C96.8237 24.7223 96.6634 24.9061 96.5408 25.1133V24.0651H93.7969V33.2048H96.6543V27.9453C96.6491 27.5436 96.7898 27.1529 97.0517 26.8419C97.1926 26.6805 97.3703 26.5532 97.5707 26.4702C97.771 26.3872 97.9886 26.3508 98.206 26.3638C98.7359 26.3638 99.1191 26.5155 99.3603 26.8236C99.6042 27.1382 99.7309 27.524 99.7199 27.9177V33.2048H102.558V27.9177C102.555 27.5219 102.696 27.1377 102.956 26.8327C103.1 26.6685 103.283 26.5397 103.488 26.4566C103.694 26.3736 103.917 26.3386 104.138 26.3546C104.352 26.3388 104.566 26.3722 104.763 26.4521C104.96 26.532 105.135 26.6561 105.274 26.8144C105.518 27.129 105.644 27.5148 105.633 27.9086V33.1956H108.415V27.2833C108.426 26.7356 108.323 26.1914 108.112 25.6834H108.122ZM91.6775 20.1113C91.5196 19.9559 91.3308 19.8333 91.1226 19.7511C90.9144 19.6689 90.6912 19.6288 90.4665 19.6331C90.2451 19.6323 90.0261 19.6761 89.8231 19.7619C89.6255 19.8451 89.4458 19.9636 89.2932 20.1113C89.1393 20.2615 89.0172 20.4395 88.9337 20.6354C88.8463 20.8361 88.8012 21.0519 88.8012 21.2698C88.8012 21.4878 88.8463 21.7035 88.9337 21.9043C89.1015 22.2971 89.4207 22.6105 89.8231 22.7778C90.0257 22.8646 90.245 22.9085 90.4665 22.9065C90.6912 22.9109 90.9144 22.8707 91.1226 22.7885C91.3308 22.7063 91.5196 22.5838 91.6775 22.4284C91.9924 22.1204 92.1692 21.704 92.1692 21.2698C92.1692 20.8357 91.9924 20.4192 91.6775 20.1113ZM89.0472 24.0651V33.2048H91.9235V24.0651H89.0472ZM84.1272 19.8906V33.2048H87.0035V19.8906H84.1272ZM77.9772 25.8121L83.2 20.1664H79.2687L74.3676 25.6466V20.1664H71.373V33.2048H74.3629V29.7108L75.8767 28.0741L79.4911 33.2048H83.2189L77.9772 25.8121Z" fill="black"/>
<path d="M202.243 11.9535C202.03 11.9554 201.818 11.9769 201.609 12.0178C201.371 12.062 201.14 12.133 200.919 12.2293C200.686 12.3302 200.472 12.4668 200.285 12.6339C200.085 12.816 199.924 13.0347 199.812 13.2775V12.0454H197.021V21.1852H199.904V17.1946C199.895 16.8042 199.956 16.4154 200.084 16.0452C200.18 15.7567 200.342 15.4928 200.557 15.2728C200.755 15.0789 200.999 14.9338 201.266 14.8499C201.535 14.7638 201.816 14.7203 202.099 14.7211C202.236 14.7211 202.383 14.7211 202.534 14.7395C202.694 14.7528 202.852 14.7773 203.007 14.8131V12.0546C202.759 11.9853 202.502 11.9512 202.243 11.9535ZM194.135 13.0017C193.294 12.1818 192.143 11.7711 190.681 11.7696C190.077 11.7689 189.479 11.8845 188.921 12.1098C188.36 12.3333 187.849 12.6613 187.417 13.0753C186.969 13.5084 186.615 14.0242 186.376 14.5924C186.109 15.2252 185.978 15.904 185.988 16.5877C185.974 17.2965 186.109 18.0006 186.386 18.6566C186.633 19.2323 187 19.752 187.464 20.1829C187.918 20.5992 188.452 20.9242 189.035 21.1392C189.627 21.3598 190.256 21.472 190.889 21.4702C191.438 21.4769 191.984 21.3993 192.507 21.2403C192.965 21.1004 193.397 20.8893 193.785 20.6151C194.14 20.3623 194.448 20.0511 194.693 19.6956C194.928 19.3502 195.106 18.9719 195.223 18.5738L192.82 17.9049C192.689 18.2821 192.431 18.6053 192.087 18.8222C191.744 19.0392 191.335 19.1371 190.927 19.1002C190.657 19.1013 190.388 19.0577 190.133 18.9715C189.887 18.8902 189.659 18.7655 189.461 18.6037C189.267 18.4482 189.107 18.2577 188.988 18.0428C188.866 17.8248 188.798 17.5825 188.789 17.3348H195.336C195.358 17.235 195.371 17.1334 195.374 17.0314C195.374 16.8544 195.393 16.6659 195.393 16.4705C195.393 14.9748 194.974 13.8185 194.135 13.0017ZM188.846 15.5303C188.861 15.3459 188.909 15.1654 188.988 14.997C189.071 14.8093 189.194 14.6403 189.347 14.5005C189.516 14.3461 189.711 14.2216 189.924 14.1327C190.176 14.0296 190.446 13.9795 190.719 13.9856C191.013 13.977 191.306 14.027 191.58 14.1327C191.794 14.2193 191.99 14.3441 192.157 14.5005C192.303 14.6407 192.416 14.8102 192.488 14.997C192.554 15.1686 192.595 15.348 192.611 15.5303H188.846ZM183.462 10.7306C183.533 10.5844 183.636 10.4555 183.765 10.3536C183.881 10.2628 184.017 10.1998 184.162 10.1697C184.296 10.1405 184.432 10.1251 184.569 10.1237C184.749 10.1211 184.929 10.1303 185.108 10.1513C185.214 10.1636 185.319 10.1852 185.421 10.2156V7.9353C185.239 7.86233 185.048 7.81287 184.853 7.78818C184.59 7.74985 184.324 7.73141 184.058 7.73301C183.538 7.72432 183.021 7.81168 182.535 7.99047C182.109 8.14684 181.723 8.39274 181.406 8.71063C181.088 9.02851 180.847 9.41054 180.699 9.82945C180.536 10.2908 180.456 10.776 180.463 11.2639V12.0546H178.968V14.4085H180.463V21.1944H183.346V14.3993H185.39V12.0454H183.346V11.3558C183.333 11.1384 183.372 10.921 183.462 10.7214V10.7306ZM177.511 11.9627C177.298 11.9647 177.086 11.9862 176.877 12.027C176.639 12.0712 176.407 12.1422 176.186 12.2385C175.954 12.34 175.74 12.4765 175.552 12.6431C175.352 12.8252 175.192 13.0439 175.079 13.2867V12.0546H172.288V21.1944H175.164V17.1946C175.155 16.8042 175.216 16.4154 175.344 16.0452C175.442 15.7575 175.604 15.4939 175.817 15.2728C176.016 15.0789 176.259 14.9338 176.527 14.8499C176.795 14.7638 177.077 14.7203 177.359 14.7211C177.499 14.7211 177.643 14.7211 177.795 14.7395C177.954 14.7526 178.112 14.7772 178.268 14.8131V12.0546C178.022 11.9858 177.767 11.9517 177.511 11.9535V11.9627ZM170.292 14.666C170.045 14.0947 169.685 13.576 169.232 13.1396C168.779 12.7067 168.242 12.366 167.652 12.1374C166.386 11.66 164.982 11.66 163.716 12.1374C163.126 12.366 162.589 12.7067 162.136 13.1396C161.683 13.576 161.323 14.0947 161.076 14.666C160.812 15.2834 160.68 15.9467 160.688 16.6153C160.681 17.2868 160.813 17.9529 161.076 18.5738C161.321 19.1488 161.681 19.6708 162.136 20.1094C162.589 20.5423 163.126 20.883 163.716 21.1116C164.982 21.589 166.386 21.589 167.652 21.1116C168.242 20.883 168.779 20.5423 169.232 20.1094C169.686 19.6708 170.047 19.1488 170.292 18.5738C170.555 17.9529 170.687 17.2868 170.68 16.6153C170.689 15.9436 170.557 15.2771 170.292 14.6568V14.666ZM167.623 17.6267C167.516 17.8909 167.355 18.1315 167.15 18.3347C166.961 18.5215 166.731 18.6658 166.479 18.7577C165.969 18.9415 165.408 18.9415 164.899 18.7577C164.642 18.6671 164.41 18.5227 164.217 18.3347C164.012 18.1289 163.851 17.885 163.744 17.6175C163.505 16.9697 163.505 16.2609 163.744 15.6131C163.849 15.3475 164.01 15.1063 164.217 14.905C164.412 14.7222 164.644 14.5812 164.899 14.4913C165.408 14.3074 165.969 14.3074 166.479 14.4913C166.73 14.5824 166.958 14.7233 167.15 14.905C167.357 15.1063 167.519 15.3475 167.623 15.6131C167.863 16.2641 167.863 16.9757 167.623 17.6267ZM159.089 20.6151C159.07 20.3277 159.061 19.9737 159.061 19.5577V7.88013H156.222V12.7718C156.14 12.6658 156.048 12.5673 155.948 12.4776C155.807 12.3534 155.648 12.2511 155.475 12.1742C155.238 12.0732 154.99 11.9962 154.737 11.9443C154.395 11.872 154.046 11.8381 153.696 11.8431C153.065 11.8357 152.44 11.9579 151.861 12.2017C151.314 12.4342 150.824 12.7757 150.422 13.204C150.01 13.6465 149.689 14.1615 149.476 14.7211C149.016 15.9537 149.016 17.3044 149.476 18.537C149.694 19.1007 150.025 19.6165 150.451 20.0542C150.869 20.4783 151.371 20.8161 151.927 21.0472C152.513 21.29 153.144 21.4121 153.781 21.4058C154.306 21.4146 154.826 21.311 155.305 21.1024C155.705 20.9379 156.049 20.667 156.298 20.3208C156.298 20.499 156.307 20.677 156.326 20.8542C156.345 21.0266 156.362 21.1415 156.374 21.2036H159.136C159.125 21.0863 159.108 20.8932 159.089 20.6059V20.6151ZM156.09 17.6083C155.985 17.8741 155.824 18.1153 155.617 18.3164C155.423 18.5048 155.191 18.652 154.936 18.7485C154.418 18.9447 153.844 18.9447 153.327 18.7485C153.072 18.652 152.84 18.5048 152.646 18.3164C152.439 18.1153 152.277 17.8741 152.173 17.6083C151.946 16.9647 151.946 16.2659 152.173 15.6222C152.277 15.3565 152.439 15.1153 152.646 14.9142C152.838 14.7263 153.071 14.5819 153.327 14.4913C153.847 14.3073 154.416 14.3073 154.936 14.4913C155.192 14.5819 155.424 14.7263 155.617 14.9142C155.824 15.1153 155.985 15.3565 156.09 15.6222C156.317 16.2659 156.317 16.9647 156.09 17.6083ZM144.641 7.88013V21.1944H147.518V7.87094L144.641 7.88013ZM141.756 13.0109C140.917 12.191 139.766 11.7803 138.302 11.7788C137.698 11.7781 137.1 11.8937 136.542 12.119C135.981 12.3425 135.47 12.6705 135.038 13.0845C134.59 13.5176 134.236 14.0334 133.997 14.6016C133.731 15.2347 133.599 15.9132 133.609 16.5969C133.595 17.3057 133.73 18.0098 134.007 18.6658C134.254 19.2415 134.621 19.7612 135.085 20.1921C135.539 20.6084 136.073 20.9334 136.656 21.1484C137.77 21.5522 138.991 21.5877 140.128 21.2495C140.586 21.1096 141.017 20.8985 141.406 20.6243C141.538 20.529 141.664 20.4262 141.784 20.3162C141.919 20.1901 142.044 20.0541 142.158 19.9094C142.213 19.8404 142.265 19.7691 142.314 19.6956C142.548 19.3502 142.727 18.9719 142.844 18.5738L140.44 17.9049C140.31 18.2821 140.052 18.6053 139.708 18.8222C139.365 19.0392 138.956 19.1371 138.548 19.1002C138.278 19.1009 138.009 19.0573 137.753 18.9715C137.508 18.8897 137.281 18.765 137.082 18.6037C136.889 18.4475 136.728 18.2572 136.608 18.0428C136.487 17.8248 136.419 17.5825 136.41 17.3348H142.957C142.981 17.2352 142.993 17.1335 142.995 17.0314C143.007 16.8544 143.014 16.6659 143.014 16.4705C143.014 14.9748 142.595 13.8185 141.756 13.0017V13.0109ZM136.467 15.5395C136.482 15.3551 136.53 15.1746 136.608 15.0062C136.693 14.819 136.815 14.6501 136.968 14.5097C137.137 14.3558 137.333 14.2313 137.545 14.1419C137.796 14.0388 138.067 13.9887 138.34 13.9947C138.634 13.9862 138.927 14.0362 139.201 14.1419C139.416 14.2279 139.611 14.3527 139.778 14.5097C139.925 14.6493 140.038 14.8189 140.109 15.0062C140.176 15.1775 140.217 15.357 140.232 15.5395H136.467ZM131.783 16.5969C131.31 16.0759 130.581 15.7173 129.597 15.5211L128.349 15.2912C128.154 15.2607 127.972 15.1815 127.819 15.0614C127.75 15.0057 127.695 14.9352 127.659 14.8554C127.623 14.7756 127.606 14.6887 127.611 14.6016C127.607 14.4881 127.633 14.3755 127.686 14.2743C127.739 14.173 127.817 14.0864 127.913 14.0223C128.121 13.881 128.369 13.807 128.623 13.8108C128.8 13.7961 128.979 13.8179 129.147 13.875C129.315 13.932 129.468 14.023 129.597 14.1419C129.805 14.36 129.934 14.6373 129.966 14.9326L132.351 14.5097C132.32 14.2082 132.24 13.9135 132.114 13.6361C131.959 13.3026 131.737 13.0024 131.461 12.7534C131.128 12.4552 130.74 12.2211 130.317 12.0638C129.766 11.8658 129.181 11.7721 128.595 11.788C128.099 11.7799 127.605 11.8578 127.137 12.0178C126.717 12.1643 126.329 12.3857 125.993 12.6707C125.677 12.9387 125.423 13.2675 125.245 13.6361C125.068 14.0045 124.978 14.4065 124.98 14.8131C124.979 15.1256 125.03 15.4362 125.132 15.7326C125.241 16.0272 125.411 16.2971 125.631 16.5256C125.88 16.7877 126.175 17.0055 126.501 17.1693C126.908 17.3718 127.341 17.5202 127.788 17.6106L128.867 17.8405C129.133 17.876 129.385 17.9808 129.595 18.1439C129.659 18.2029 129.71 18.2742 129.744 18.3534C129.779 18.4326 129.795 18.5178 129.794 18.6037C129.792 18.7096 129.767 18.8138 129.72 18.9091C129.672 19.0045 129.604 19.0885 129.519 19.1554C129.283 19.3277 128.99 19.4095 128.696 19.3853C128.498 19.4013 128.298 19.3759 128.11 19.3109C127.923 19.2459 127.752 19.1427 127.608 19.0083C127.382 18.7745 127.246 18.4728 127.22 18.1531L124.772 18.5945C124.797 18.8999 124.877 19.1987 125.009 19.4772C125.168 19.8289 125.396 20.1474 125.68 20.4151C126.027 20.7372 126.435 20.9902 126.882 21.1599C127.477 21.3787 128.11 21.4818 128.746 21.4633C129.31 21.4759 129.872 21.3854 130.402 21.1967C130.838 21.0426 131.239 20.8085 131.584 20.507C131.893 20.2341 132.135 19.8981 132.294 19.5232C132.449 19.1586 132.529 18.7682 132.531 18.3738C132.524 17.7045 132.256 17.0627 131.781 16.5785L131.783 16.5969ZM122.984 16.5969C122.511 16.0759 121.782 15.7173 120.798 15.5211L119.549 15.2912C119.355 15.2607 119.173 15.1815 119.019 15.0614C118.95 15.0057 118.896 14.9352 118.859 14.8554C118.823 14.7756 118.807 14.6887 118.811 14.6016C118.808 14.4881 118.833 14.3755 118.886 14.2743C118.939 14.173 119.018 14.0864 119.114 14.0223C119.322 13.881 119.57 13.807 119.824 13.8108C120.001 13.7961 120.179 13.8179 120.347 13.875C120.515 13.932 120.669 14.023 120.798 14.1419C121.006 14.36 121.135 14.6373 121.167 14.9326L123.552 14.5097C123.52 14.2082 123.441 13.9135 123.315 13.6361C123.16 13.3026 122.938 13.0024 122.662 12.7534C122.329 12.4552 121.94 12.2211 121.517 12.0638C120.967 11.8658 120.382 11.7721 119.795 11.788C119.299 11.7799 118.806 11.8578 118.338 12.0178C117.918 12.1643 117.53 12.3857 117.193 12.6707C116.878 12.9387 116.624 13.2675 116.446 13.6361C116.269 14.0045 116.178 14.4065 116.181 14.8131C116.18 15.1256 116.231 15.4362 116.332 15.7326C116.437 16.0324 116.605 16.3078 116.824 16.5417C117.074 16.8038 117.368 17.0216 117.695 17.1854C118.101 17.3879 118.534 17.5363 118.982 17.6267L120.06 17.8566C120.327 17.8921 120.579 17.9969 120.789 18.16C120.853 18.219 120.904 18.2903 120.938 18.3695C120.972 18.4487 120.989 18.5339 120.987 18.6198C120.986 18.7256 120.961 18.8299 120.913 18.9252C120.866 19.0206 120.798 19.1046 120.713 19.1715C120.477 19.3438 120.184 19.4256 119.89 19.4014C119.691 19.4173 119.492 19.392 119.304 19.327C119.116 19.262 118.945 19.1588 118.802 19.0244C118.576 18.7906 118.439 18.4889 118.414 18.1692L115.973 18.5945C115.998 18.8999 116.078 19.1987 116.209 19.4772C116.369 19.8289 116.597 20.1474 116.881 20.4151C117.228 20.7372 117.636 20.9902 118.083 21.1599C118.678 21.3787 119.311 21.4818 119.947 21.4633C120.511 21.4759 121.073 21.3854 121.602 21.1967C122.039 21.0426 122.44 20.8085 122.785 20.507C123.094 20.2341 123.336 19.8981 123.495 19.5232C123.65 19.1586 123.73 18.7682 123.731 18.3738C123.726 17.7049 123.459 17.063 122.984 16.5785V16.5969ZM114.421 20.6427C114.397 20.3415 114.383 19.9829 114.383 19.5669V12.0454H111.507V17.2497C111.516 17.4562 111.484 17.6625 111.41 17.8566C111.337 18.0507 111.226 18.2289 111.081 18.3807C110.932 18.5266 110.753 18.6405 110.556 18.7149C110.359 18.7893 110.148 18.8227 109.936 18.8129C109.722 18.8294 109.506 18.7964 109.307 18.7165C109.108 18.6366 108.932 18.5121 108.792 18.3531C108.54 18.0312 108.41 17.6353 108.423 17.2314V12.0454H105.546V17.8198C105.544 18.2893 105.624 18.7558 105.783 19.1991C105.933 19.6169 106.168 20.0013 106.473 20.33C106.788 20.6622 107.172 20.9255 107.599 21.1024C108.081 21.2992 108.6 21.3963 109.123 21.3875C109.609 21.3842 110.09 21.2938 110.542 21.1208C110.993 20.962 111.376 20.6609 111.63 20.2657C111.63 20.3875 111.63 20.5507 111.649 20.753C111.655 20.8984 111.674 21.043 111.706 21.1852H114.468C114.466 21.1231 114.447 20.9254 114.421 20.6243V20.6427ZM113.163 8.57894C113.029 8.44508 112.869 8.33929 112.691 8.26812C112.514 8.19695 112.323 8.16191 112.131 8.16517C111.941 8.1618 111.752 8.19683 111.576 8.26804C111.4 8.33926 111.241 8.44511 111.11 8.57894C110.974 8.71016 110.868 8.86656 110.796 9.03879C110.725 9.21101 110.69 9.3955 110.693 9.58119C110.691 9.76541 110.726 9.94826 110.798 10.1189C110.869 10.2896 110.975 10.4447 111.109 10.575C111.243 10.7052 111.402 10.8081 111.578 10.8775C111.754 10.9468 111.942 10.9813 112.131 10.9788C112.323 10.9823 112.512 10.9483 112.69 10.8788C112.867 10.8093 113.028 10.7057 113.163 10.5742C113.301 10.4465 113.41 10.2923 113.483 10.1213C113.557 9.95032 113.592 9.76638 113.589 9.58119C113.595 9.39164 113.56 9.20297 113.486 9.02723C113.413 8.85148 113.303 8.69254 113.163 8.56056V8.57894ZM108.981 8.57894C108.847 8.44508 108.687 8.33929 108.509 8.26812C108.332 8.19695 108.141 8.16191 107.949 8.16517C107.759 8.1618 107.57 8.19683 107.394 8.26804C107.218 8.33926 107.059 8.44511 106.928 8.57894C106.792 8.71016 106.686 8.86656 106.614 9.03879C106.543 9.21101 106.508 9.3955 106.511 9.58119C106.509 9.76541 106.544 9.94826 106.616 10.1189C106.687 10.2896 106.793 10.4447 106.927 10.575C107.061 10.7052 107.22 10.8081 107.396 10.8775C107.572 10.9468 107.76 10.9813 107.949 10.9788C108.141 10.9823 108.33 10.9483 108.508 10.8788C108.685 10.8093 108.846 10.7057 108.981 10.5742C109.119 10.4465 109.228 10.2923 109.301 10.1213C109.375 9.95032 109.41 9.76638 109.407 9.58119C109.413 9.39164 109.378 9.20297 109.304 9.02723C109.231 8.85148 109.121 8.69254 108.981 8.56056V8.57894ZM103.455 11.9719C103.158 11.1935 102.69 10.4875 102.083 9.90301C101.476 9.32983 100.75 8.888 99.9544 8.60653C99.0727 8.29314 98.1399 8.13738 97.2011 8.14678H92.3379V21.1852H97.1822C98.124 21.1939 99.0598 21.0382 99.945 20.7254C100.741 20.444 101.466 20.0022 102.074 19.4289C102.678 18.8494 103.146 18.1499 103.446 17.3785C103.776 16.5108 103.936 15.5909 103.919 14.666C103.938 13.7418 103.78 12.8222 103.455 11.9535V11.9719ZM100.522 16.3854C100.356 16.822 100.09 17.2162 99.7445 17.538C99.3986 17.8598 98.9818 18.1009 98.5257 18.2428C98.0561 18.3956 97.564 18.4732 97.0687 18.4727H95.3277V10.8869H97.0687C97.564 10.8863 98.0561 10.964 98.5257 11.1167C98.9672 11.2597 99.3709 11.4951 99.7084 11.8064C100.064 12.139 100.338 12.5442 100.513 12.9925C100.904 14.0884 100.904 15.2803 100.513 16.3762L100.522 16.3854Z" fill="black"/>
<path d="M37.2344 10.6712C36.934 10.7907 36.6431 10.9217 36.3568 11.062C38.7723 14.1832 40.0323 18.0058 39.9326 21.91C39.8328 25.8143 38.3792 29.5713 35.8073 32.5722C33.2354 35.5731 29.696 37.642 25.7628 38.4434C21.8296 39.2448 17.7332 38.7318 14.1376 36.9875C10.5419 35.2433 7.65785 32.37 5.95281 28.8335C4.24778 25.297 3.82174 21.3045 4.74375 17.5032C5.66575 13.702 7.88177 10.3147 11.0326 7.89055C14.1834 5.46638 18.0843 4.14739 22.103 4.14739C22.914 4.1468 23.7241 4.20056 24.5275 4.3083C24.8161 4.03475 25.1094 3.7681 25.4122 3.51294C21.1142 2.76559 16.6826 3.49668 12.8792 5.5805C9.0758 7.66433 6.13819 10.9707 4.57138 14.9313C3.00457 18.8918 2.90645 23.2591 4.29388 27.2823C5.68132 31.3056 8.46764 34.7334 12.1738 36.9766C15.88 39.2198 20.2746 40.1381 24.602 39.5738C28.9294 39.0095 32.9194 36.9977 35.886 33.8844C38.8525 30.771 40.6104 26.7506 40.8573 22.5142C41.1043 18.2779 39.8249 14.0902 37.2391 10.6712H37.2344ZM34.3486 12.3171C34.1003 12.5079 33.859 12.7079 33.6272 12.917C35.6073 15.4335 36.6576 18.5247 36.6087 21.6923C36.5598 24.8598 35.4146 27.9191 33.3577 30.3767C31.3008 32.8343 28.4521 34.547 25.271 35.2387C22.0899 35.9304 18.7617 35.5608 15.8233 34.1894C12.8848 32.818 10.5072 30.5248 9.07396 27.6795C7.6407 24.8342 7.23528 21.6028 7.92307 18.5062C8.61086 15.4096 10.3518 12.6284 12.8651 10.611C15.3784 8.59362 18.5176 7.45766 21.7766 7.3863C22.0084 7.0798 22.2505 6.7733 22.5028 6.4668H22.103C18.6148 6.46779 15.2297 7.61598 12.4984 9.72453C9.76714 11.8331 7.85056 14.7779 7.06056 18.0797C6.27056 21.3814 6.65364 24.8459 8.14746 27.9092C9.64129 30.9725 12.1579 33.4543 15.2878 34.9507C18.4177 36.4472 21.9766 36.8702 25.3854 36.1509C28.7941 35.4317 31.8521 33.6124 34.0615 30.9893C36.271 28.3662 37.502 25.0936 37.5541 21.7041C37.6063 18.3146 36.4765 15.0078 34.3486 12.3217V12.3171Z" fill="black"/>
<path d="M41.7815 3.26843C36.8021 3.27391 32.0283 5.19863 28.5074 8.62033C24.9865 12.042 23.0059 16.6813 23.0003 21.5203C22.9854 25.4343 24.2778 29.2472 26.6832 32.3864C26.8228 32.3312 26.9623 32.2715 27.0971 32.214L27.1208 32.2025C27.2627 32.1404 27.3999 32.0761 27.5371 32.0094H27.556C25.5524 29.4377 24.3269 26.3736 24.0174 23.1619C23.7079 19.9502 24.3267 16.7183 25.8041 13.8298C27.2816 10.9412 29.5591 8.51056 32.3804 6.81125C35.2018 5.11195 38.4551 4.2114 41.7744 4.21091C46.5045 4.21091 51.0409 6.03699 54.3857 9.28745C57.7304 12.5379 59.6094 16.9465 59.6094 21.5433C59.6094 26.1402 57.7304 30.5487 54.3857 33.7992C51.0409 37.0496 46.5045 38.8757 41.7744 38.8757C40.9515 38.8756 40.1296 38.8211 39.3144 38.7125L39.2813 38.7424L39.0991 38.9125C38.8784 39.1148 38.656 39.3125 38.4321 39.5056C40.9977 39.9551 43.6316 39.8807 46.166 39.287C48.7004 38.6932 51.0798 37.5932 53.1529 36.057C55.2259 34.5208 56.9472 32.5819 58.2071 30.3639C59.467 28.1459 60.2379 25.6972 60.4708 23.1738C60.7037 20.6504 60.3934 18.1075 59.5598 15.707C58.7262 13.3065 57.3874 11.1009 55.6287 9.2307C53.8701 7.36048 51.73 5.86655 49.3448 4.84401C46.9595 3.82148 44.3814 3.29273 41.7744 3.29142L41.7815 3.26843ZM41.7815 0.0502108C37.8082 0.0521308 33.909 1.09465 30.4939 3.06809C27.0788 5.04153 24.2741 7.87294 22.3748 11.2645C20.4756 14.656 19.5519 18.4823 19.7011 22.3408C19.8503 26.1994 21.0668 29.9475 23.2226 33.191C23.5774 33.1634 23.9323 33.1174 24.2681 33.0576C21.4878 29.0636 20.2436 24.2456 20.7539 19.449C21.2642 14.6525 23.4963 10.1838 27.0586 6.82697C30.6209 3.47018 35.2859 1.43977 40.2349 1.09201C45.184 0.744242 50.101 2.10134 54.1232 4.92516C58.1453 7.74899 61.0158 11.8592 62.2308 16.5345C63.4458 21.2098 62.9278 26.1517 60.7676 30.4929C58.6075 34.8341 54.9432 38.2973 50.4177 40.2749C45.8922 42.2526 40.7946 42.6182 36.0194 41.3078C35.6788 41.5331 35.3311 41.7507 34.9763 41.9606C38.0153 42.9164 41.2313 43.2208 44.403 42.8527C47.5747 42.4847 50.6266 41.453 53.3486 39.8287C56.0707 38.2045 58.3981 36.0262 60.1707 33.4438C61.9434 30.8615 63.119 27.9365 63.6168 24.8703C64.1146 21.804 63.9226 18.6693 63.0542 15.6821C62.1857 12.6948 60.6614 9.92599 58.5861 7.56619C56.5109 5.2064 53.934 3.31173 51.033 2.01264C48.132 0.713545 44.9757 0.0408993 41.7815 0.0410156V0.0502108ZM41.7815 6.51193C38.8887 6.51173 36.054 7.30059 33.5999 8.78877C31.1457 10.2769 29.1707 12.4047 27.8994 14.9299C26.6282 17.4551 26.1118 20.2763 26.4091 23.0727C26.7063 25.869 27.8052 28.5281 29.5808 30.7474C29.8315 30.5589 30.0728 30.3589 30.3046 30.1521C28.3029 27.6449 27.23 24.5549 27.2597 21.3817C27.2893 18.2085 28.4196 15.1378 30.4678 12.6664C32.516 10.195 35.3622 8.46741 38.5461 7.76308C41.73 7.05876 45.0653 7.41891 48.0124 8.78528C50.9595 10.1516 53.3461 12.4443 54.7861 15.2924C56.2261 18.1405 56.6352 21.3774 55.9474 24.4795C55.2595 27.5815 53.5148 30.3674 50.9956 32.3863C48.4764 34.4052 45.33 35.5392 42.0653 35.6046C41.8335 35.9111 41.593 36.2176 41.3439 36.5241H41.7815C45.8799 36.5241 49.8104 34.9419 52.7085 32.1256C55.6065 29.3092 57.2346 25.4894 57.2346 21.5065C57.2346 17.5236 55.6065 13.7038 52.7085 10.8875C49.8104 8.07115 45.8799 6.48895 41.7815 6.48895V6.51193Z" fill="black"/>
<path d="M44.2011 21.4788C44.1936 26.0052 42.7132 30.4133 39.9716 34.0725C37.2301 37.7317 33.3678 40.4544 28.9375 41.8512C24.5072 43.248 19.7358 43.2473 15.3059 41.8492C10.8761 40.451 7.01472 37.7271 4.27433 34.0671C1.53393 30.4071 0.0549048 25.9985 0.0488468 21.4722C0.0427888 16.9458 1.51001 12.5335 4.2406 8.86661C6.97119 5.19969 10.8252 2.46601 15.2513 1.05668C19.6775 -0.35266 24.4488 -0.365442 28.8829 1.02016C28.5281 1.22858 28.1796 1.44695 27.8374 1.67529C23.056 0.367585 17.9536 0.737272 13.4247 2.71954C8.8957 4.70181 5.2293 8.17015 3.06827 12.5165C0.90724 16.8628 0.3895 21.8097 1.60583 26.4898C2.82215 31.1699 5.69491 35.2846 9.72044 38.1125C13.746 40.9403 18.6673 42.3008 23.6217 41.9554C28.576 41.61 33.2472 39.5808 36.8161 36.2235C40.3851 32.8662 42.6241 28.3951 43.1405 23.5942C43.657 18.7933 42.418 13.9688 39.6407 9.96681C39.9813 9.90704 40.329 9.85876 40.6791 9.82658C42.9936 13.2954 44.2176 17.3446 44.2011 21.4788Z" fill="black"/>
</g>
<defs>
<clipPath id="clip0_803_1171">
<rect width="203" height="43" fill="white"/>
</clipPath>
</defs>
</svg>
