<svg width="65" height="43" viewBox="0 0 65 43" fill="none" xmlns="http://www.w3.org/2000/svg">
<rect width="64.4993" height="42.9995" rx="4" fill="#DBDBDB"/>
<g opacity="0.01">
<rect x="6.24805" y="4.30078" width="52.016" height="34.3996" fill="white"/>
</g>
<rect x="25.3965" y="10.2939" width="13.7195" height="22.4135" fill="#F26122"/>
<path d="M26.8749 21.5004C26.8523 17.138 28.8337 13.0067 32.2499 10.2937C26.405 5.69714 18.0089 6.36461 12.9636 11.8269C7.91837 17.2891 7.91837 25.7117 12.9636 31.174C18.0089 36.6362 26.405 37.3037 32.2499 32.7072C28.8337 29.9941 26.8523 25.8628 26.8749 21.5004Z" fill="#EA1D25"/>
<path fill-rule="evenodd" clip-rule="evenodd" d="M53.9406 29.8714V30.3283H53.86V29.8714H53.6719V29.7773H54.1422V29.8714H53.9406ZM54.8505 29.7773V30.3283H54.7565V29.9117L54.6086 30.2745H54.5011L54.3399 29.9117V30.3283H54.2458V29.7773H54.3802L54.5549 30.167L54.7161 29.7773H54.8505Z" fill="#F69E1E"/>
<path d="M55.3065 21.4999C55.303 26.9546 52.1875 31.9292 47.2816 34.3135C42.3756 36.6979 36.5392 36.0741 32.248 32.7067C38.4293 27.8396 39.4997 18.8854 34.6399 12.6985C33.9432 11.8025 33.14 10.9948 32.248 10.2932C36.5392 6.92576 42.3756 6.30193 47.2816 8.6863C52.1875 11.0707 55.303 16.0452 55.3065 21.4999Z" fill="#F69E1E"/>
</svg>
