<svg width="65" height="43" viewBox="0 0 65 43" fill="none" xmlns="http://www.w3.org/2000/svg">
<rect width="64.4993" height="42.9995" rx="4" fill="#DBDBDB"/>
<path d="M27.3255 34.0228L27.7958 31.0666H26.7477H21.8027L25.2427 9.21746C25.2519 9.14976 25.2853 9.0877 25.3368 9.04277C25.3908 9.00103 25.4566 8.97751 25.5249 8.97559H33.8695C36.651 8.97559 38.5591 9.55339 39.5669 10.6956C40.0128 11.1746 40.3235 11.7636 40.4672 12.4021C40.6239 13.1781 40.6239 13.9776 40.4672 14.7536V15.4255L40.9375 15.6943C41.2956 15.8727 41.6187 16.1139 41.8916 16.4064C42.3023 16.9023 42.5675 17.5023 42.6575 18.1399C42.7582 18.9733 42.7218 19.8175 42.55 20.6392C42.3728 21.6373 42.0226 22.5968 41.5153 23.4745C41.1054 24.1781 40.5513 24.7872 39.8894 25.2617C39.2233 25.7159 38.4816 26.0481 37.6991 26.2426C36.8207 26.4642 35.9176 26.5725 35.0117 26.5651H34.3532C33.8917 26.5651 33.4449 26.7268 33.0901 27.0219C32.7335 27.3224 32.4993 27.7431 32.4317 28.2044V28.4732L31.612 33.6869V33.8884C31.6217 33.9236 31.6217 33.9608 31.612 33.9959H31.5314L27.3255 34.0228Z" fill="#253D80"/>
<path d="M41.3838 14.8877L41.3031 15.3849C40.2013 21.0286 36.4254 22.9904 31.6148 22.9904H29.1692C28.5808 22.9897 28.0793 23.4171 27.9867 23.9982L26.737 31.9531L26.3742 34.2106C26.347 34.3914 26.3994 34.5751 26.518 34.7142C26.6365 34.8534 26.8096 34.9344 26.9924 34.9362H31.3461C31.8623 34.9357 32.3013 34.5594 32.3807 34.0494V33.8344L33.2004 28.6341V28.3519C33.2737 27.8439 33.7084 27.4665 34.2217 27.4651H34.9338C39.1397 27.4651 42.4453 25.7585 43.3994 20.7464C43.9156 19.0333 43.5971 17.1773 42.5394 15.7342C42.2037 15.39 41.8132 15.1039 41.3838 14.8877V14.8877Z" fill="#189BD7"/>
<path d="M40.2255 14.4306L39.7149 14.2962L39.1505 14.1887C38.4389 14.0823 37.72 14.0329 37.0005 14.0409H30.4431C30.2899 14.0367 30.1379 14.0689 29.9997 14.1349C29.6881 14.2808 29.4709 14.5738 29.4219 14.9143L28.0781 23.7426V23.998C28.1707 23.4169 28.6722 22.9894 29.2606 22.9902H31.7062C36.5168 22.9902 40.2927 21.0283 41.3945 15.3846L41.4752 14.8874C41.1857 14.7379 40.8847 14.612 40.5749 14.5112L40.2255 14.4306Z" fill="#242E65"/>
<path d="M29.4231 14.9146C29.4721 14.574 29.6893 14.2811 30.0009 14.1352C30.1392 14.0692 30.2911 14.0369 30.4443 14.0411H37.0017C37.7212 14.0331 38.4401 14.0825 39.1517 14.189L39.7161 14.2965L40.2267 14.4308L40.482 14.5115C40.7918 14.6123 41.0929 14.7381 41.3823 14.8877C41.8191 13.2089 41.4188 11.4224 40.3073 10.0906C38.9636 8.66621 36.7599 8.06152 33.8843 8.06152H25.5262C24.9378 8.06081 24.4363 8.48823 24.3438 9.06933L20.8635 31.12C20.8323 31.328 20.8929 31.5392 21.0295 31.699C21.1662 31.8589 21.3654 31.9516 21.5757 31.9531H26.7356L28.0793 23.7429L29.4231 14.9146Z" fill="#253D80"/>
</svg>
