<svg width="65" height="43" viewBox="0 0 65 43" fill="none" xmlns="http://www.w3.org/2000/svg">
<rect width="64.4993" height="42.9995" rx="4" fill="#DBDBDB"/>
<path fill-rule="evenodd" clip-rule="evenodd" d="M40.7827 23.7435C40.7909 21.6946 39.1011 20.8097 37.7898 20.123C36.9596 19.6882 36.2811 19.3329 36.2811 18.812C36.2811 18.3686 36.7111 17.8982 37.6249 17.7773C38.7124 17.6697 39.8086 17.8602 40.7961 18.3282L41.3605 15.6408C40.3978 15.2798 39.3786 15.0932 38.3505 15.0898C35.1793 15.0898 32.9756 16.7829 32.9756 19.2017C32.9756 20.9888 34.5746 21.9832 35.784 22.5744C36.9933 23.1657 37.4636 23.5822 37.4502 24.1197C37.4502 24.9529 36.4558 25.3291 35.5287 25.3425C34.3849 25.3573 33.2564 25.0798 32.2499 24.5363L31.6721 27.2238C32.8109 27.6683 34.024 27.8918 35.2465 27.8822C38.6192 27.8822 40.8364 26.216 40.8498 23.636L40.7827 23.7435ZM32.0621 15.306L29.3746 27.7355H26.1496L28.8371 15.306H32.0621ZM45.5787 23.367L47.2718 18.7042L48.2528 23.367H45.5787ZM52.1492 27.7754H49.1661L48.7764 25.9211H44.7318L44.0734 27.7754H40.6871L45.5112 16.2596C45.7336 15.7117 46.2636 15.3513 46.8549 15.3459H49.5424L52.1492 27.7754ZM22.3194 27.6945L27.5331 15.265H24.0394L20.6935 23.7171L19.3498 16.5281C19.2308 15.7976 18.5984 15.262 17.8582 15.265H12.3892L12.3086 15.6278C13.4055 15.8424 14.471 16.1946 15.4798 16.6759C15.9095 16.8779 16.2006 17.2917 16.2457 17.7643L18.8123 27.6945H22.3194Z" fill="#2A2A6C"/>
</svg>
